<svg width="133" height="51" viewBox="0 0 133 51" fill="none" xmlns="http://www.w3.org/2000/svg">
<path d="M127 2.66663C127 4.13939 128.194 5.33329 129.667 5.33329C131.139 5.33329 132.333 4.13939 132.333 2.66663C132.333 1.19387 131.139 -4.07696e-05 129.667 -4.07696e-05C128.194 -4.07696e-05 127 1.19387 127 2.66663ZM53.4665 2.66663V2.16663H53.2769L53.135 2.29235L53.4665 2.66663ZM-0.00016284 47.6666C-0.00016284 49.1394 1.19374 50.3333 2.6665 50.3333C4.13926 50.3333 5.33317 49.1394 5.33317 47.6666C5.33317 46.1939 4.13926 45 2.6665 45C1.19374 45 -0.00016284 46.1939 -0.00016284 47.6666ZM129.667 2.66663V2.16663H53.4665V2.66663V3.16663H129.667V2.66663ZM53.4665 2.66663L53.135 2.29235L2.33496 47.2924L2.6665 47.6666L2.99805 48.0409L53.798 3.0409L53.4665 2.66663Z" fill="white"/>
</svg>
