<svg width="133" height="51" viewBox="0 0 133 51" fill="none" xmlns="http://www.w3.org/2000/svg">
<path d="M127 47.6666C127 46.1939 128.194 45 129.667 45C131.139 45 132.333 46.1939 132.333 47.6666C132.333 49.1394 131.139 50.3333 129.667 50.3333C128.194 50.3333 127 49.1394 127 47.6666ZM53.4665 47.6666V48.1666H53.2769L53.135 48.0409L53.4665 47.6666ZM-0.00016284 2.66663C-0.00016284 1.19387 1.19374 -4.19617e-05 2.6665 -4.19617e-05C4.13926 -4.19617e-05 5.33317 1.19387 5.33317 2.66663C5.33317 4.13939 4.13926 5.33329 2.6665 5.33329C1.19374 5.33329 -0.00016284 4.13939 -0.00016284 2.66663ZM129.667 47.6666V48.1666H53.4665V47.6666V47.1666H129.667V47.6666ZM53.4665 47.6666L53.135 48.0409L2.33496 3.0409L2.6665 2.66663L2.99805 2.29235L53.798 47.2924L53.4665 47.6666Z" fill="white"/>
</svg>
