<svg width="209" height="52" viewBox="0 0 209 52" fill="none" xmlns="http://www.w3.org/2000/svg">
<path d="M203 2.66663C203 4.13939 204.194 5.33329 205.667 5.33329C207.139 5.33329 208.333 4.13939 208.333 2.66663C208.333 1.19387 207.139 -4.07696e-05 205.667 -4.07696e-05C204.194 -4.07696e-05 203 1.19387 203 2.66663ZM97.6665 2.66663V2.16663H97.1665V2.66663H97.6665ZM97.6665 48.6666V49.1666H98.1665V48.6666H97.6665ZM-0.00016284 48.6666C-0.00016284 50.1394 1.19374 51.3333 2.6665 51.3333C4.13926 51.3333 5.33317 50.1394 5.33317 48.6666C5.33317 47.1939 4.13926 46 2.6665 46C1.19374 46 -0.00016284 47.1939 -0.00016284 48.6666ZM205.667 2.66663V2.16663H97.6665V2.66663V3.16663H205.667V2.66663ZM97.6665 2.66663H97.1665V48.6666H97.6665H98.1665V2.66663H97.6665ZM97.6665 48.6666V48.1666H2.6665V48.6666V49.1666H97.6665V48.6666Z" fill="white"/>
</svg>
