<svg width="105" height="6" viewBox="0 0 105 6" fill="none" xmlns="http://www.w3.org/2000/svg">
<path d="M-0.00016284 2.66663C-0.00016284 4.13939 1.19374 5.33329 2.6665 5.33329C4.13926 5.33329 5.33317 4.13939 5.33317 2.66663C5.33317 1.19387 4.13926 -4.07696e-05 2.6665 -4.07696e-05C1.19374 -4.07696e-05 -0.00016284 1.19387 -0.00016284 2.66663ZM99.2815 2.66663C99.2815 4.13939 100.475 5.33329 101.948 5.33329C103.421 5.33329 104.615 4.13939 104.615 2.66663C104.615 1.19387 103.421 -4.07696e-05 101.948 -4.07696e-05C100.475 -4.07696e-05 99.2815 1.19387 99.2815 2.66663ZM2.6665 2.66663V3.16663H101.948V2.66663V2.16663H2.6665V2.66663Z" fill="white"/>
</svg>
