<svg width="190" height="51" viewBox="0 0 190 51" fill="none" xmlns="http://www.w3.org/2000/svg">
<path d="M-0.00016284 2.66663C-0.00016284 4.13939 1.19374 5.33329 2.6665 5.33329C4.13926 5.33329 5.33317 4.13939 5.33317 2.66663C5.33317 1.19387 4.13926 -4.07696e-05 2.6665 -4.07696e-05C1.19374 -4.07696e-05 -0.00016284 1.19387 -0.00016284 2.66663ZM112.667 2.66663H113.167V2.16663H112.667V2.66663ZM112.667 47.6666H112.167V48.1666H112.667V47.6666ZM184.5 47.6666C184.5 49.1394 185.694 50.3333 187.167 50.3333C188.639 50.3333 189.833 49.1394 189.833 47.6666C189.833 46.1939 188.639 45 187.167 45C185.694 45 184.5 46.1939 184.5 47.6666ZM2.6665 2.66663V3.16663H112.667V2.66663V2.16663H2.6665V2.66663ZM112.667 2.66663H112.167V47.6666H112.667H113.167V2.66663H112.667ZM112.667 47.6666V48.1666H187.167V47.6666V47.1666H112.667V47.6666Z" fill="white"/>
</svg>
