<svg width="226" height="78" viewBox="0 0 226 78" fill="none" xmlns="http://www.w3.org/2000/svg">
<path d="M225.333 74.6666C225.333 76.1394 224.139 77.3333 222.667 77.3333C221.194 77.3333 220 76.1394 220 74.6666C220 73.1939 221.194 72 222.667 72C224.139 72 225.333 73.1939 225.333 74.6666ZM109.667 74.6666V75.1666H109.167V74.6666H109.667ZM109.667 2.66663V2.16663H110.167V2.66663H109.667ZM5.33318 2.66663C5.33318 4.13939 4.13927 5.33329 2.6665 5.33329C1.19374 5.33329 -0.000167847 4.13939 -0.000167847 2.66663C-0.000167847 1.19387 1.19374 -4.07696e-05 2.6665 -4.07696e-05C4.13927 -4.07696e-05 5.33318 1.19387 5.33318 2.66663ZM222.667 74.6666V75.1666H109.667V74.6666V74.1666H222.667V74.6666ZM109.667 74.6666H109.167V2.66663H109.667H110.167V74.6666H109.667ZM109.667 2.66663V3.16663H2.6665V2.66663V2.16663H109.667V2.66663Z" fill="white"/>
</svg>
