<svg width="226" height="47" viewBox="0 0 226 47" fill="none" xmlns="http://www.w3.org/2000/svg">
<path d="M-0.00016284 43.6666C-0.00016284 45.1394 1.19374 46.3333 2.6665 46.3333C4.13926 46.3333 5.33317 45.1394 5.33317 43.6666C5.33317 42.1939 4.13926 41 2.6665 41C1.19374 41 -0.00016284 42.1939 -0.00016284 43.6666ZM115.667 43.6666V44.1666H116.167V43.6666H115.667ZM115.667 2.66663V2.16663H115.167V2.66663H115.667ZM220 2.66663C220 4.13939 221.194 5.33329 222.667 5.33329C224.139 5.33329 225.333 4.13939 225.333 2.66663C225.333 1.19387 224.139 -4.07696e-05 222.667 -4.07696e-05C221.194 -4.07696e-05 220 1.19387 220 2.66663ZM2.6665 43.6666V44.1666H115.667V43.6666V43.1666H2.6665V43.6666ZM115.667 43.6666H116.167V2.66663H115.667H115.167V43.6666H115.667ZM115.667 2.66663V3.16663H222.667V2.66663V2.16663H115.667V2.66663Z" fill="white"/>
</svg>
