<svg width="144" height="6" viewBox="0 0 144 6" fill="none" xmlns="http://www.w3.org/2000/svg">
<path d="M-0.00016284 2.66663C-0.000162969 4.13939 1.19374 5.33329 2.6665 5.33329C4.13926 5.33329 5.33317 4.13939 5.33317 2.66663C5.33317 1.19387 4.13926 -4.06408e-05 2.6665 -4.07696e-05C1.19374 -4.08983e-05 -0.000162711 1.19387 -0.00016284 2.66663ZM138 2.66664C138 4.1394 139.194 5.3333 140.667 5.3333C142.139 5.3333 143.333 4.1394 143.333 2.66664C143.333 1.19388 142.139 -2.85765e-05 140.667 -2.87052e-05C139.194 -2.8834e-05 138 1.19388 138 2.66664ZM2.6665 2.66663L2.6665 3.16663L140.667 3.16664L140.667 2.66664L140.667 2.16664L2.6665 2.16663L2.6665 2.66663Z" fill="white"/>
</svg>
