<svg width="252" height="6" viewBox="0 0 252 6" fill="none" xmlns="http://www.w3.org/2000/svg">
<path d="M-0.00016284 2.66663C-0.000162969 4.13939 1.19374 5.33329 2.6665 5.33329C4.13926 5.33329 5.33317 4.13939 5.33317 2.66663C5.33317 1.19387 4.13926 -4.06408e-05 2.6665 -4.07696e-05C1.19374 -4.08983e-05 -0.000162711 1.19387 -0.00016284 2.66663ZM246 2.66665C246 4.13941 247.194 5.33331 248.667 5.33331C250.139 5.33331 251.333 4.13941 251.333 2.66665C251.333 1.19389 250.139 -1.91348e-05 248.667 -1.92636e-05C247.194 -1.93923e-05 246 1.19389 246 2.66665ZM2.6665 2.66663L2.6665 3.16663L248.667 3.16665L248.667 2.66665L248.667 2.16665L2.6665 2.16663L2.6665 2.66663Z" fill="white"/>
</svg>
